<svg xmlns="http://www.w3.org/2000/svg" viewBox="0 0 120 120" aria-hidden="true">
  <g fill="#000">
    <circle cx="6" cy="8" r="0.8" fill-opacity="0.45" />
    <circle cx="18" cy="14" r="0.7" fill-opacity="0.35" />
    <circle cx="31" cy="6" r="0.8" fill-opacity="0.4" />
    <circle cx="44" cy="11" r="0.9" fill-opacity="0.32" />
    <circle cx="57" cy="7" r="0.7" fill-opacity="0.38" />
    <circle cx="73" cy="15" r="0.8" fill-opacity="0.35" />
    <circle cx="84" cy="9" r="0.7" fill-opacity="0.42" />
    <circle cx="99" cy="12" r="0.9" fill-opacity="0.3" />
    <circle cx="111" cy="6" r="0.8" fill-opacity="0.34" />
    <circle cx="10" cy="27" r="0.7" fill-opacity="0.4" />
    <circle cx="23" cy="21" r="0.8" fill-opacity="0.33" />
    <circle cx="35" cy="30" r="0.9" fill-opacity="0.4" />
    <circle cx="48" cy="24" r="0.7" fill-opacity="0.36" />
    <circle cx="63" cy="29" r="0.8" fill-opacity="0.44" />
    <circle cx="77" cy="22" r="0.9" fill-opacity="0.34" />
    <circle cx="89" cy="31" r="0.7" fill-opacity="0.39" />
    <circle cx="104" cy="26" r="0.8" fill-opacity="0.33" />
    <circle cx="115" cy="20" r="0.7" fill-opacity="0.41" />
    <circle cx="7" cy="43" r="0.9" fill-opacity="0.31" />
    <circle cx="20" cy="36" r="0.7" fill-opacity="0.43" />
    <circle cx="33" cy="47" r="0.8" fill-opacity="0.36" />
    <circle cx="46" cy="39" r="0.8" fill-opacity="0.4" />
    <circle cx="59" cy="44" r="0.7" fill-opacity="0.34" />
    <circle cx="72" cy="37" r="0.9" fill-opacity="0.38" />
    <circle cx="87" cy="45" r="0.8" fill-opacity="0.33" />
    <circle cx="101" cy="40" r="0.7" fill-opacity="0.45" />
    <circle cx="112" cy="48" r="0.8" fill-opacity="0.35" />
    <circle cx="12" cy="58" r="0.7" fill-opacity="0.39" />
    <circle cx="26" cy="53" r="0.9" fill-opacity="0.34" />
    <circle cx="39" cy="61" r="0.7" fill-opacity="0.42" />
    <circle cx="52" cy="55" r="0.8" fill-opacity="0.36" />
    <circle cx="67" cy="63" r="0.9" fill-opacity="0.3" />
    <circle cx="81" cy="57" r="0.7" fill-opacity="0.4" />
    <circle cx="94" cy="64" r="0.8" fill-opacity="0.33" />
    <circle cx="108" cy="59" r="0.7" fill-opacity="0.44" />
    <circle cx="4" cy="74" r="0.8" fill-opacity="0.37" />
    <circle cx="17" cy="68" r="0.7" fill-opacity="0.35" />
    <circle cx="30" cy="76" r="0.8" fill-opacity="0.41" />
    <circle cx="43" cy="71" r="0.9" fill-opacity="0.31" />
    <circle cx="56" cy="79" r="0.7" fill-opacity="0.42" />
    <circle cx="71" cy="73" r="0.8" fill-opacity="0.34" />
    <circle cx="85" cy="80" r="0.9" fill-opacity="0.36" />
    <circle cx="97" cy="74" r="0.7" fill-opacity="0.43" />
    <circle cx="110" cy="82" r="0.8" fill-opacity="0.3" />
    <circle cx="9" cy="90" r="0.9" fill-opacity="0.35" />
    <circle cx="22" cy="85" r="0.7" fill-opacity="0.44" />
    <circle cx="36" cy="93" r="0.8" fill-opacity="0.33" />
    <circle cx="49" cy="87" r="0.7" fill-opacity="0.39" />
    <circle cx="62" cy="95" r="0.9" fill-opacity="0.32" />
    <circle cx="76" cy="89" r="0.7" fill-opacity="0.41" />
    <circle cx="90" cy="97" r="0.8" fill-opacity="0.35" />
    <circle cx="103" cy="91" r="0.9" fill-opacity="0.33" />
    <circle cx="116" cy="99" r="0.7" fill-opacity="0.45" />
    <circle cx="6" cy="109" r="0.7" fill-opacity="0.4" />
    <circle cx="19" cy="104" r="0.8" fill-opacity="0.32" />
    <circle cx="34" cy="112" r="0.9" fill-opacity="0.36" />
    <circle cx="47" cy="106" r="0.7" fill-opacity="0.43" />
    <circle cx="60" cy="114" r="0.8" fill-opacity="0.34" />
    <circle cx="74" cy="108" r="0.7" fill-opacity="0.4" />
    <circle cx="88" cy="116" r="0.9" fill-opacity="0.3" />
    <circle cx="102" cy="110" r="0.8" fill-opacity="0.42" />
    <circle cx="114" cy="118" r="0.7" fill-opacity="0.36" />
  </g>
  <g fill="#fff">
    <circle cx="13" cy="5" r="0.7" fill-opacity="0.25" />
    <circle cx="39" cy="18" r="0.7" fill-opacity="0.22" />
    <circle cx="68" cy="10" r="0.8" fill-opacity="0.24" />
    <circle cx="95" cy="22" r="0.7" fill-opacity="0.2" />
    <circle cx="27" cy="33" r="0.8" fill-opacity="0.23" />
    <circle cx="58" cy="40" r="0.7" fill-opacity="0.21" />
    <circle cx="83" cy="34" r="0.8" fill-opacity="0.24" />
    <circle cx="14" cy="51" r="0.7" fill-opacity="0.2" />
    <circle cx="42" cy="66" r="0.8" fill-opacity="0.23" />
    <circle cx="70" cy="52" r="0.7" fill-opacity="0.24" />
    <circle cx="98" cy="67" r="0.8" fill-opacity="0.2" />
    <circle cx="25" cy="82" r="0.7" fill-opacity="0.22" />
    <circle cx="54" cy="74" r="0.8" fill-opacity="0.23" />
    <circle cx="79" cy="88" r="0.7" fill-opacity="0.21" />
    <circle cx="106" cy="78" r="0.8" fill-opacity="0.25" />
    <circle cx="18" cy="100" r="0.7" fill-opacity="0.2" />
    <circle cx="45" cy="116" r="0.8" fill-opacity="0.24" />
    <circle cx="72" cy="102" r="0.7" fill-opacity="0.21" />
    <circle cx="99" cy="113" r="0.8" fill-opacity="0.23" />
  </g>
</svg>
